<?xml version='1.0' encoding='utf-8'?>
<svg xmlns="http://www.w3.org/2000/svg" height="100%" stroke-miterlimit="10" style="fill-rule:nonzero;clip-rule:evenodd;stroke-linecap:round;stroke-linejoin:round;" version="1.1" viewBox="0 0 3000 3000" width="100%"> <defs> <linearGradient gradientTransform="matrix(1 0 0 1 0 0)" gradientUnits="userSpaceOnUse" id="LinearGradient" x1="1452.42" x2="2805.81" y1="1500" y2="194.188"> <stop offset="0" stop-color="#7e7e7e"/> <stop offset="0.555825" stop-color="#c8c8c8"/> <stop offset="1" stop-color="#7e7e7e"/> </linearGradient> </defs> <g id="Layer-1"/> <g id="Layer-2"> <path d="M474 194.188C319.461 194.187 194.187 319.461 194.188 474L194.188 2526C194.187 2680.54 319.461 2805.81 474 2805.81L2526 2805.81C2680.54 2805.81 2805.81 2680.54 2805.81 2526L2805.81 474C2805.81 319.461 2680.54 194.188 2526 194.188L474 194.188ZM1503.44 593.719C1744.3 592.865 1975.41 688.747 2144.94 859.844L2144.81 859.844C2315.52 1029.65 2411.39 1260.56 2411.16 1501.34C2410.7 2001.55 2003.62 2408.62 1503.88 2408.62L1503.44 2408.62C1351.95 2408.59 1202.87 2370.63 1069.81 2298.22L588.844 2424.28L717.094 1954.19C638.036 1816.32 596.156 1660.59 596.156 1500.53C596.614 1000.78 1003.8 593.719 1503.44 593.719ZM1503.88 746.781C1088.11 746.781 749.812 1085.24 749.812 1500.09C749.543 1641.97 789.498 1781 865.031 1901.09L882.875 1929.81L806.656 2208.16L1092 2133.34L1119.47 2149.81C1235.68 2218.76 1368.32 2255.11 1503.44 2255.06C1918.86 2255.06 2257.17 1917.22 2257.62 1500.88C2258.11 1300.86 2178.7 1108.92 2037.03 967.719C1895.86 825.961 1703.94 746.422 1503.88 746.781ZM1182.5 1081.69C1197.72 1081.69 1212.96 1081.67 1226 1082.47C1239.96 1083.04 1258.6 1076.87 1276.91 1121.38C1296.01 1166.45 1341.19 1278.24 1346.91 1289.56C1352.51 1300.89 1356.06 1313.92 1348.62 1329.25C1341.19 1344.35 1337.41 1353.99 1325.97 1367.03C1314.64 1380.07 1302.08 1396.53 1292.12 1406.59C1280.8 1417.92 1268.99 1430.07 1282.03 1452.72C1295.53 1475.26 1340.75 1549.62 1408.25 1609.69C1494.74 1687.14 1567.84 1710.93 1590.38 1722.38C1613.03 1733.59 1626.55 1731.87 1639.59 1716.66C1652.64 1701.9 1696.1 1650.54 1711.31 1628C1726.19 1605.35 1741.4 1609.22 1762.22 1616.66C1783.16 1624.44 1894.49 1679.24 1917.03 1690.56C1939.68 1701.89 1954.89 1707.51 1960.5 1717.12C1966.22 1726.62 1966.23 1771.91 1947.47 1825C1928.36 1877.97 1837.85 1926.27 1794.38 1932.91C1755.25 1938.51 1706.16 1941.14 1651.81 1923.75C1618.75 1913.22 1576.43 1899.36 1522.66 1875.91C1295.09 1777.51 1146.81 1548.81 1135.59 1533.59C1124.15 1518.38 1042.94 1410.97 1042.94 1299.19C1042.94 1187.41 1101.18 1132.59 1122 1109.94C1137.36 1092.5 1159.27 1082.26 1182.5 1081.69Z" fill="url(#LinearGradient)" fill-rule="nonzero" opacity="1" stroke="none"/> </g> </svg>